<?xml version="1.0" encoding="UTF-8"?>
<svg version="1.1" xmlns="http://www.w3.org/2000/svg" width="500" height="500">
<path d="M0 0 C165 0 330 0 500 0 C500 165 500 330 500 500 C335 500 170 500 0 500 C0 335 0 170 0 0 Z " fill="#000000" transform="translate(0,0)"/>
<path d="M0 0 C1.6730957 1.1418457 1.6730957 1.1418457 3 3 C3.34057617 5.72729492 3.34057617 5.72729492 3.29296875 8.98046875 C3.28330078 10.14384766 3.27363281 11.30722656 3.26367188 12.50585938 C3.23853516 13.72080078 3.21339844 14.93574219 3.1875 16.1875 C3.17396484 17.41404297 3.16042969 18.64058594 3.14648438 19.90429688 C3.11108741 22.93663664 3.0617076 25.96809996 3 29 C4.28692749 28.97172119 4.28692749 28.97172119 5.59985352 28.94287109 C27.55185199 28.66149468 45.97515344 38.34806158 61.6875 53.1875 C77.61647732 69.64514467 85.23564161 91.02549915 85.25146484 113.7265625 C84.88527884 134.85793641 75.5323745 154.05092659 61 169 C60.42507813 169.63679687 59.85015625 170.27359375 59.2578125 170.9296875 C46.80466251 184.33618868 26.85664885 192.51810525 8.79296875 193.3828125 C-14.21651172 194.0015717 -34.73485232 188.92388827 -52 173 C-52.91394531 172.17757812 -53.82789063 171.35515625 -54.76953125 170.5078125 C-71.00919197 155.17899459 -79.66015077 133.91879993 -80.5 111.75 C-81.09347139 98.37711146 -85.31570489 86.13357525 -95.125 76.75 C-105.86078842 67.82158337 -118.16210867 63.82031508 -132 65 C-144.38409318 66.93146407 -155.04711016 72.18097153 -163 82 C-165.28368509 85.21272971 -167.2179069 88.48577902 -169 92 C-169.34160156 92.66128906 -169.68320313 93.32257813 -170.03515625 94.00390625 C-174.44563955 104.4864968 -173.06519765 118.69573555 -169.3203125 129.10546875 C-164.11250201 140.52259175 -155.50500983 149.16565096 -143.9296875 154.03515625 C-139.03907329 155.64579853 -134.09254949 156.35873479 -129 157 C-128.9906543 156.29391602 -128.98130859 155.58783203 -128.97167969 154.86035156 C-128.91794341 151.65619455 -128.83430243 148.45349243 -128.75 145.25 C-128.73582031 144.13882813 -128.72164063 143.02765625 -128.70703125 141.8828125 C-128.67480469 140.81289063 -128.64257812 139.74296875 -128.609375 138.640625 C-128.58842773 137.65610352 -128.56748047 136.67158203 -128.54589844 135.65722656 C-127.83235198 132.18395302 -126.96030956 130.955467 -124 129 C-119.87021891 128.58486577 -118.07084315 129.19353105 -114.759552 131.68731689 C-112.12667604 134.05894258 -109.62183251 136.52069111 -107.12890625 139.0390625 C-106.206577 139.95327972 -105.28424774 140.86749695 -104.33396912 141.80941772 C-102.38845812 143.74160802 -100.45439921 145.6844215 -98.52758789 147.63525391 C-96.06226383 150.12918888 -93.56875812 152.59256892 -91.06567478 155.04853249 C-88.6741642 157.40377614 -86.30925394 159.7850292 -83.94140625 162.1640625 C-82.59629723 163.48321152 -82.59629723 163.48321152 -81.22401428 164.82901001 C-77.85830539 168.27220031 -75.36716218 170.86927678 -73.86865234 175.48413086 C-75.73753848 181.29203531 -79.87757176 184.87331817 -84.16015625 189.08984375 C-85.10848308 190.04289028 -86.05576909 190.99697351 -87.00205994 191.95204163 C-88.98588463 193.94616653 -90.98176468 195.92713309 -92.98706055 197.8996582 C-95.55112042 200.4238327 -98.08245806 202.97814499 -100.60556889 205.54317379 C-102.554999 207.51795148 -104.520862 209.47568781 -106.492033 211.42874336 C-107.88777053 212.81756889 -109.26947155 214.22045499 -110.65089417 215.6235199 C-117.76333629 222.55355436 -117.76333629 222.55355436 -121.94311523 222.82250977 C-125 222 -125 222 -126.91918945 220.36621094 C-128.25421346 217.44345226 -128.34211289 215.35137568 -128.29296875 212.140625 C-128.28330078 211.02558594 -128.27363281 209.91054688 -128.26367188 208.76171875 C-128.23853516 207.60285156 -128.21339844 206.44398438 -128.1875 205.25 C-128.16719727 203.48849609 -128.16719727 203.48849609 -128.14648438 201.69140625 C-128.1111478 198.79380702 -128.06180979 195.89713573 -128 193 C-128.70487549 193.01740234 -129.40975098 193.03480469 -130.13598633 193.05273438 C-149.48617484 193.32797201 -166.59078892 185.677975 -181 173 C-181.8353125 172.35289062 -182.670625 171.70578125 -183.53125 171.0390625 C-196.93651419 159.96699303 -206.14853864 140.14033749 -208.71484375 123.22265625 C-210.92488441 98.24616929 -205.47949354 77.03401752 -189.71875 57.1171875 C-177.58125265 42.96990975 -158.76466508 31.26880464 -140 29 C-114.820953 27.36570263 -92.33571041 31.35899768 -72.875 48.3125 C-71.23232458 49.85640696 -69.60704719 51.41904124 -68 53 C-67.2265625 53.76054687 -66.453125 54.52109375 -65.65625 55.3046875 C-51.25605417 70.34598794 -45.3683404 88.95757458 -43.6171875 109.390625 C-42.23120994 124.9305715 -38.12864999 137.31419918 -25.875 147.75 C-15.98590568 155.06895104 -4.09658173 157.98043071 8 157 C19.95594218 154.69571599 31.43521705 149.9088002 39 140 C47.09122231 127.0870697 49.98698559 115.27255804 47.53515625 100.12890625 C44.26655264 88.04087516 37.66306919 78.42193545 27.125 71.75 C20.88685857 68.20688644 14.7324563 66.29210239 7.71875 64.921875 C6.83123047 64.7475293 5.94371094 64.57318359 5.02929688 64.39355469 C4.35962891 64.26368164 3.68996094 64.13380859 3 64 C3.02356567 65.15786011 3.02356567 65.15786011 3.04760742 66.33911133 C3.10989607 69.83016662 3.14897173 73.32110509 3.1875 76.8125 C3.21263672 78.02744141 3.23777344 79.24238281 3.26367188 80.49414062 C3.27817383 82.23920898 3.27817383 82.23920898 3.29296875 84.01953125 C3.31653442 85.62985229 3.31653442 85.62985229 3.34057617 87.27270508 C3 90 3 90 1.85668945 91.8737793 C-0.89090827 93.54040235 -2.83111777 93.31478681 -6 93 C-8.39866638 91.37669373 -8.39866638 91.37669373 -10.73608398 89.07202148 C-11.61977158 88.21370224 -12.50345917 87.355383 -13.41392517 86.47105408 C-14.35889769 85.52197878 -15.30293197 84.57196852 -16.24609375 83.62109375 C-17.22567673 82.65063678 -18.20599942 81.68092596 -19.18702698 80.71192932 C-21.23701899 78.6797866 -23.27528608 76.63670177 -25.30639648 74.58569336 C-27.90808356 71.96101042 -30.54014947 69.36940576 -33.18234158 66.78558254 C-35.21338979 64.7912595 -37.22545919 62.77860488 -39.23250008 60.760149 C-40.19560268 59.79674005 -41.16492215 58.839504 -42.14050102 57.888731 C-49.73419106 50.46124437 -49.73419106 50.46124437 -50.64453125 45.45678711 C-48.10068048 40.10963998 -44.22574951 36.47194957 -40.00390625 32.3828125 C-38.64808693 31.0361702 -38.64808693 31.0361702 -37.26487732 29.662323 C-34.86771442 27.28751275 -32.45817175 24.92682363 -30.04187012 22.57159424 C-28.06884004 20.64227722 -26.1089815 18.69987693 -24.14965916 16.75665474 C-20.10505445 12.74596258 -16.05033749 8.74542442 -11.97485352 4.76611328 C-11.25395035 4.06108673 -10.53304718 3.35606018 -9.79029846 2.62966919 C-6.60016086 -0.27424268 -4.24864394 -0.34682808 0 0 Z " fill="#FDFDFD" transform="translate(312,139)"/>
</svg>
